<svg xmlns="http://www.w3.org/2000/svg" xmlns:xlink="http://www.w3.org/1999/xlink" xmlns:svgjs="http://svgjs.com/svgjs" id="SvgjsSvg1012" width="288" height="288"><defs id="SvgjsDefs1013"></defs><g id="SvgjsG1014"><svg xmlns="http://www.w3.org/2000/svg" width="288" height="288" viewBox="0 0 50 50"><g id="Layer" fill="#5f91b8" class="color000 svgShape"><path id="Layer" fill="#5f91b8" fill-rule="evenodd" d="M21.07 5.35C19.66 5.82 18.77 6.7 18.02 8.32C17.73 8.98 17.56 9.19 17.38 9.13C14.47 8.28 12.84 8.29 11.07 9.15C9.32 9.99 7.71 12.21 7.24 14.42L7.04 15.29L6.38 15.37C5.53 15.46 4.34 16.06 3.97 16.57C2.96 17.98 3.65 21.09 5.34 22.79C6.06 23.51 7.59 24.32 8.51 24.47C9.01 24.55 9.04 24.53 9.14 24.03C9.26 23.34 9.75 22.89 10.64 22.68C11.33 22.5 11.37 22.45 11.68 21.62C12.4 19.72 13.49 18.57 15.54 17.53C19.82 15.39 28.24 16.09 31.8 18.88C32.47 19.42 32.75 19.39 33.87 18.7C34.85 18.1 35.6 17.94 38.16 17.82C39.35 17.78 40.34 17.67 40.34 17.61C40.34 17.53 40.12 17.24 39.88 16.95C39.31 16.32 38.3 15.94 37.15 15.94C36.46 15.94 36.34 15.89 36.41 15.71C36.72 14.9 37.01 13.42 37.01 12.57C37.03 11.32 36.6 10.34 35.69 9.58C34.74 8.75 33.73 8.52 31.68 8.63C30.76 8.69 29.75 8.78 29.44 8.83C28.9 8.92 28.87 8.89 28.41 8.15C28.17 7.74 27.71 7.16 27.4 6.87C25.82 5.33 23.03 4.66 21.07 5.35Z" class="color333 svgShape"></path><path id="Layer" fill="#5f91b8" fill-rule="evenodd" d="M18.73 17.53C16.37 18.04 14.09 19.26 13.29 20.47C13.06 20.83 13.06 20.86 13.47 21.02C13.7 21.13 14.18 21.5 14.53 21.87C14.93 22.28 15.3 22.53 15.53 22.53C16.23 22.53 17.04 22.85 17.29 23.22C17.49 23.51 17.49 23.68 17.33 24.24C17.09 25.18 17.13 26.1 17.49 26.79C17.78 27.37 17.82 27.38 18.74 27.49C20.17 27.63 22.1 27.6 22.76 27.41C23.1 27.32 23.71 27.03 24.14 26.76C24.97 26.22 26.68 25.53 26.82 25.65C26.88 25.73 26.68 27.61 26.44 29.13L26.36 29.7L27.34 29.87C27.89 29.96 29.06 30.04 29.95 30.04C31.52 30.04 31.55 30.02 31.72 29.65C32.03 28.99 33.27 27.77 34.34 27.09C35.86 26.13 38.7 24.93 38.83 25.19C38.94 25.38 38.88 26.07 38.56 28.63L38.45 29.42L39.06 29.21C39.83 28.93 40.73 28.49 41.65 27.89C42.05 27.64 42.8 27.29 43.34 27.12C45.7 26.33 46.91 24.69 46.54 22.73C46.3 21.35 44.96 19.94 43.34 19.32C42.1 18.86 40.06 18.63 38.08 18.76C35.71 18.88 35.02 19.06 33.62 19.92L32.41 20.66L31.51 19.88C29.55 18.19 26.96 17.47 22.56 17.38C20.54 17.35 19.43 17.39 18.73 17.53Z" class="color333 svgShape"></path><path id="Layer" fill="#5f91b8" fill-rule="evenodd" d="M12.45 22.96C12.45 23.02 12.52 23.15 12.63 23.26 12.77 23.4 12.74 23.45 12.51 23.45 12.32 23.45 12.06 23.58 11.91 23.75 11.68 24 11.6 24.01 11.47 23.84 11.28 23.63 10.15 23.68 10.15 23.91 10.15 23.97 10.25 24.27 10.39 24.59 10.58 25.04 10.68 25.15 10.93 25.09 11.27 24.99 11.28 25.04 11.04 25.44 10.88 25.68 10.88 25.81 11.04 26.07 11.24 26.37 11.22 26.39 10.84 26.3 10.45 26.2 10.42 26.22 10.48 26.59 10.53 26.8 10.5 27.02 10.44 27.06 10.36 27.11 10.3 27.25 10.3 27.37 10.3 27.66 11.05 27.66 11.48 27.35 11.77 27.15 11.8 27.15 11.88 27.41 11.92 27.58 12.15 27.75 12.43 27.81 12.83 27.91 12.89 27.95 12.74 28.13 12.6 28.3 12.66 28.46 13.04 28.84 13.52 29.33 13.53 29.33 13.63 28.99 13.67 28.81 13.79 28.66 13.92 28.66 14.25 28.66 14.33 28.35 14.09 27.98 13.86 27.64 13.87 27.64 14.3 27.71 14.65 27.75 14.78 27.71 14.87 27.41L15.01 27.05 15.11 27.4C15.2 27.66 15.31 27.72 15.48 27.66 15.63 27.6 15.91 27.52 16.09 27.51 16.58 27.43 16.58 27.43 16.38 26.77 16.25 26.33 16.12 26.2 15.83 26.2 15.53 26.2 15.51 26.17 15.66 25.97 15.77 25.85 15.82 25.59 15.76 25.36 15.68 25.05 15.71 24.98 15.96 24.98 16.15 24.98 16.28 24.81 16.38 24.38L16.54 23.78 15.92 23.61C15.23 23.45 15.05 23.49 15.05 23.86 15.05 24.04 14.94 24 14.67 23.69 14.47 23.48 14.22 23.29 14.15 23.29 14.05 23.29 14.02 23.18 14.07 23.06 14.15 22.88 14.01 22.83 13.3 22.83 12.83 22.83 12.45 22.89 12.45 22.96zM36.32 27.11C33.84 28.38 32.87 29.25 32.4 30.63 32.01 31.75 32.27 32.95 33.01 33.47 33.44 33.77 34.39 33.79 34.96 33.5 36 32.95 37.09 31.11 37.5 29.18 37.75 28.04 37.81 26.51 37.61 26.51 37.55 26.51 36.96 26.79 36.32 27.11zM24.26 27.74C22.9 28.46 22.45 28.85 22.08 29.65 21.66 30.57 21.7 31.2 22.24 31.74 22.74 32.24 23.13 32.29 23.8 31.95 24.77 31.44 25.49 29.97 25.72 28 25.84 26.92 25.79 26.92 24.26 27.74zM19.69 31.52C19.59 31.55 19.49 31.83 19.49 32.1 19.49 32.5 19.43 32.59 19.23 32.55 19.08 32.52 18.87 32.55 18.76 32.61 18.51 32.78 18.74 33.48 19.1 33.61 19.23 33.67 19.34 33.82 19.34 33.96 19.34 34.19 19.31 34.19 18.94 33.96 18.59 33.71 18.53 33.71 17.96 33.97 17.46 34.2 17.36 34.33 17.32 34.79L17.27 35.32 17.06 34.66C16.83 33.97 16.41 33.8 16.14 34.28 16.02 34.51 15.94 34.51 15.59 34.36 15.27 34.2 15.11 34.2 14.96 34.34 14.62 34.62 14.7 35.2 15.07 35.29 15.33 35.35 15.37 35.47 15.33 35.89L15.28 36.39 16.05 36.36C16.81 36.33 16.81 36.33 16.4 36.56 16.05 36.75 15.97 36.88 15.97 37.39 15.97 37.97 16.4 38.62 16.8 38.62 16.87 38.62 16.91 38.65 16.87 38.69 16.83 38.72 16.55 38.69 16.28 38.62 15.57 38.42 15.2 38.55 15.2 39.01 15.2 39.21 15.3 39.38 15.4 39.38 15.5 39.38 15.4 39.54 15.17 39.7 14.93 39.87 14.74 40.15 14.74 40.3 14.74 40.65 15.25 40.84 15.65 40.61 15.88 40.49 15.99 40.5 16.08 40.67 16.14 40.78 16.35 40.91 16.54 40.98 16.81 41.07 16.89 40.99 17.04 40.5 17.3 39.69 17.56 39.46 17.44 40.15 17.35 40.67 17.36 40.7 18.04 40.98 18.68 41.24 18.76 41.24 19.11 41.01 19.57 40.7 19.63 40.96 19.19 41.27 19.02 41.39 18.81 41.71 18.73 41.99 18.59 42.48 18.59 42.48 19.04 42.39 19.46 42.31 19.49 42.34 19.49 42.74 19.49 43.63 20.34 43.76 20.51 42.92 20.57 42.6 20.71 42.45 20.94 42.42 21.41 42.36 21.41 41.8 20.95 41.24 20.49 40.7 20.54 40.64 21.1 41.01 21.47 41.25 21.52 41.24 22.02 40.9 22.36 40.65 22.56 40.41 22.56 40.18 22.56 39.69 22.82 39.77 22.93 40.3 23.03 40.87 23.39 41.04 23.75 40.72 23.95 40.53 24.2 40.49 24.58 40.55 24.87 40.61 25.16 40.58 25.21 40.5 25.36 40.24 25.15 39.7 24.84 39.61 24.61 39.54 24.57 39.43 24.64 39.12 24.78 38.62 24.51 38.45 23.71 38.55 23.23 38.6 23.17 38.59 23.42 38.48 23.6 38.4 23.82 38.25 23.88 38.13 24.08 37.8 23.94 36.72 23.66 36.5 23.46 36.35 23.54 36.32 24.14 36.32 24.92 36.32 25.03 36.15 24.6 35.67 24.46 35.52 24.41 35.4 24.49 35.4 24.77 35.38 25.15 34.98 25.24 34.59 25.35 34.2 25.32 34.17 24.9 34.17 24.66 34.17 24.38 34.25 24.28 34.36 24.14 34.49 24.03 34.48 23.82 34.28 23.34 33.85 23.07 33.96 22.82 34.66L22.59 35.32 22.57 34.77C22.56 34.25 22.51 34.19 21.85 33.94 21.33 33.74 21.1 33.73 20.98 33.85 20.78 34.05 20.57 34.06 20.57 33.88 20.57 33.8 20.71 33.68 20.87 33.64 21.26 33.51 21.46 32.81 21.17 32.62 21.04 32.55 20.83 32.53 20.69 32.58 20.48 32.64 20.41 32.56 20.41 32.23 20.41 31.98 20.34 31.71 20.23 31.6 20.03 31.4 19.99 31.4 19.69 31.52zM6.21 32.89C4.55 33.74 3.86 34.59 3.86 35.77 3.86 36.38 4.4 37.08 4.88 37.08 5.38 37.08 6.39 36.35 6.75 35.72 7.05 35.2 7.54 33.21 7.54 32.55 7.54 32.23 7.37 32.27 6.21 32.89zM32.72 34.4C32.52 34.69 32.37 35 32.37 35.09 32.37 35.17 32.27 35.25 32.15 35.25 32.05 35.25 31.83 35.4 31.71 35.58 31.49 35.9 31.46 35.9 31.46 35.64 31.45 35.46 31.37 35.4 31.2 35.46 31.06 35.51 30.76 35.55 30.51 35.55 30.18 35.55 30.07 35.63 30.07 35.84 30.07 36.01 30.14 36.2 30.22 36.24 30.31 36.29 30.37 36.47 30.37 36.64 30.37 36.84 30.48 36.93 30.7 36.93 30.97 36.93 30.99 36.96 30.83 37.16 30.68 37.34 30.68 37.48 30.8 37.77 30.96 38.11 30.94 38.16 30.68 38.16 30.48 38.16 30.37 38.26 30.37 38.43 30.37 38.59 30.3 38.78 30.21 38.88 29.96 39.12 30.16 39.6 30.47 39.47 30.59 39.43 30.85 39.46 31.02 39.55 31.28 39.69 31.37 39.67 31.48 39.46 31.62 39.23 31.66 39.23 31.92 39.52 32.09 39.7 32.31 39.84 32.38 39.84 32.47 39.84 32.52 39.93 32.47 40.04 32.43 40.16 32.61 40.49 32.87 40.76L33.35 41.27 33.5 40.9C33.59 40.7 33.75 40.47 33.87 40.41 33.98 40.33 34.02 40.15 33.98 39.98 33.9 39.77 33.94 39.69 34.14 39.69 34.3 39.69 34.54 39.58 34.7 39.43 34.93 39.23 34.97 39.21 34.97 39.41 34.97 39.6 35.08 39.61 35.66 39.47 36.32 39.32 36.53 39.06 36.2 38.85 36.12 38.8 36.04 38.59 36.04 38.39 36.04 38.13 35.98 38.05 35.77 38.11 35.54 38.17 35.51 38.1 35.55 37.57 35.6 37.15 35.55 36.93 35.4 36.88 35.29 36.85 35.39 36.84 35.6 36.87 35.94 36.92 36.03 36.85 36.09 36.5 36.12 36.27 36.21 35.97 36.27 35.81 36.37 35.58 36.32 35.55 35.95 35.57 35.71 35.58 35.39 35.54 35.25 35.47 35.05 35.4 34.97 35.43 34.97 35.61 34.97 35.95 34.77 35.92 34.54 35.54 34.39 35.29 34.25 35.24 33.93 35.32 33.53 35.41 33.53 35.41 33.81 35.11 34.1 34.79 34.1 34.77 33.67 34.33 33.42 34.06 33.19 33.87 33.15 33.87 33.1 33.87 32.9 34.11 32.72 34.4zM12.32 36.85C10.75 37.59 9.53 38.49 8.92 39.4 8.49 40.03 8.39 40.35 8.34 41.13 8.28 42.02 8.31 42.14 8.71 42.59 9.95 43.95 11.91 42.85 12.89 40.21 13.27 39.21 13.55 37.62 13.49 36.9L13.44 36.33 12.32 36.85zM26.61 41.31C26.11 41.6 25.53 42 25.35 42.19 24.54 42.94 24.32 43.98 24.86 44.55 25.3 45.04 25.7 45.1 26.33 44.81 27.23 44.38 27.74 43.38 28 41.48 28.08 40.84 28.06 40.76 27.82 40.76 27.65 40.76 27.11 41.01 26.61 41.31z" class="color333 svgShape"></path></g></svg></g></svg>