<svg xmlns="http://www.w3.org/2000/svg" xmlns:xlink="http://www.w3.org/1999/xlink" xmlns:svgjs="http://svgjs.com/svgjs"
    id="SvgjsSvg1025" width="288" height="288">
    <defs id="SvgjsDefs1026"></defs>
    <g id="SvgjsG1027">
        <svg xmlns="http://www.w3.org/2000/svg" width="288" height="288" viewBox="0 0 50 50">
            <g id="Layer" fill="#5f91b8" class="color000 svgShape">
                <path id="Layer" fill="#5f91b8" fill-rule="evenodd"
                    d="M17.98 4.86C17.81 4.98 17.84 5.38 18.05 5.91 18.14 6.12 18.01 6.08 17.45 5.73 17.05 5.49 16.68 5.29 16.61 5.29 16.54 5.29 16.34 5.56 16.15 5.89 15.55 7.04 15.61 7.37 17.98 18.1 19.57 25.28 19.87 26.36 20.49 27.4L20.83 28.02 19.94 28.45C18.6 29.1 17.21 29.48 15.55 29.63 14.72 29.7 13.8 29.83 13.52 29.91 12.92 30.08 12.37 30.65 11.86 31.72L11.49 32.48 11.81 33.15C12.52 34.61 13.25 35.24 15.13 36 15.92 36.32 16.11 36.35 16.57 36.22 16.85 36.13 18.13 35.31 19.4 34.41L21.7 32.77 24.17 32.62C28.92 32.35 32.04 31.19 35.37 28.46 36.03 27.92 36.7 27.52 37.35 27.29 37.89 27.09 38.36 26.89 38.4 26.84 38.56 26.69 37.43 25.47 36.77 25.08 35.94 24.6 35.21 24.6 34.03 25.1 32.92 25.54 32.14 25.57 31.51 25.18 30.83 24.77 30.58 24.07 29.93 21.03 29.19 17.51 28.89 16.82 26.84 14.12 25.38 12.2 24.52 11.23 21.06 7.71 19.11 5.72 18.1 4.79 17.98 4.86zM22.58 35.06C22.4 35.37 22.08 35.74 21.88 35.87 21.12 36.35 20.53 37.02 19.7 38.36 19.23 39.11 18.53 40.1 18.13 40.55 17.61 41.14 17.41 41.5 17.41 41.8 17.41 42.17 17.37 42.21 16.98 42.21 16.35 42.21 15.26 43.29 15.26 43.9 15.26 44.52 16.01 45.13 16.61 45.02 17.28 44.89 17.7 44.33 17.7 43.56 17.7 42.83 17.84 42.5 18.44 41.81 18.67 41.55 19.5 40.37 20.29 39.18 21.07 38.01 21.95 36.75 22.2 36.4 22.68 35.79 23.06 34.9 22.96 34.61 22.93 34.53 22.76 34.73 22.58 35.06z"
                    class="color333 svgShape"></path>
            </g>
        </svg>
    </g>
</svg>