<svg xmlns="http://www.w3.org/2000/svg" xmlns:xlink="http://www.w3.org/1999/xlink" xmlns:svgjs="http://svgjs.com/svgjs" id="SvgjsSvg1020" width="288" height="288"><defs id="SvgjsDefs1021"></defs><g id="SvgjsG1022"><svg xmlns="http://www.w3.org/2000/svg" width="288" height="288" viewBox="0 0 50 50"><path id="Layer" fill="#5f91b8" fill-rule="evenodd" d="M31.02 17.31L18.31 17.31L19.9 14.13L29.43 14.13L31.02 17.31ZM32.61 18.9L32.61 47.5L16.72 47.5L16.72 18.9L32.61 18.9ZM26.25 7.78L26.25 10.96L27.84 10.96L27.84 12.55L21.49 12.55L21.49 6.19L27.84 6.19L27.84 7.78L26.25 7.78ZM27.84 10C27.49 10 27.21 9.72 27.21 9.37C27.21 9.02 27.49 8.73 27.84 8.73L27.84 10ZM33.56 10.32C33.04 10.32 32.61 9.89 32.61 9.37C32.61 8.84 33.03 8.42 33.56 8.42C34.09 8.42 34.51 8.84 34.51 9.37C34.51 9.89 34.09 10.32 33.56 10.32ZM37.69 10.96C36.81 10.96 36.1 10.25 36.1 9.37C36.1 8.49 36.81 7.78 37.69 7.78C38.57 7.78 39.28 8.49 39.28 9.37C39.28 10.25 38.57 10.96 37.69 10.96ZM36.63 5.21C36.01 5.83 35 5.83 34.38 5.21C33.76 4.59 33.76 3.59 34.38 2.96C35 2.34 36.01 2.34 36.63 2.96C37.25 3.59 37.25 4.59 36.63 5.21ZM34.38 15.77C33.76 15.15 33.76 14.15 34.38 13.53C35 12.91 36.01 12.91 36.63 13.53C37.25 14.15 37.25 15.15 36.63 15.77C36.01 16.39 35 16.39 34.38 15.77ZM33.16 7.46C32.79 7.83 32.19 7.83 31.82 7.46C31.44 7.09 31.44 6.48 31.82 6.11C32.19 5.74 32.79 5.74 33.16 6.11C33.54 6.48 33.54 7.09 33.16 7.46ZM31.82 12.63C31.44 12.25 31.44 11.65 31.82 11.28C32.19 10.91 32.79 10.91 33.16 11.28C33.54 11.65 33.54 12.25 33.16 12.63C32.79 13 32.19 13 31.82 12.63Z" class="color333 svgShape"></path></svg></g></svg>