<svg xmlns="http://www.w3.org/2000/svg" width="50" height="50"><g><title>background</title><rect fill="none" id="canvas_background" height="52" width="52" y="-1" x="-1"></rect></g><g><title>Layer 1</title><path stroke-width="0" fill="#5f91b8" d="m25.45,6.14c0.11,0.65 0.41,1.75 0.67,2.45l0.46,1.27l0.2,-0.61c0.22,-0.63 0.8,-1.21 1.07,-1.04c0.07,0.06 0.14,0.26 0.14,0.48c0,0.22 0.08,0.65 0.18,0.95l0.21,0.54l0.35,-0.83c0.21,-0.46 0.56,-1.17 0.82,-1.59c0.52,-0.89 2.04,-2.36 2.43,-2.36c0.29,0 0.27,0.16 -0.19,1.76c-0.14,0.48 -0.24,1.6 -0.24,2.55l0,1.7l0.48,-0.55c0.25,-0.28 0.66,-0.57 0.92,-0.64l0.44,-0.1l-0.09,1.08l-0.1,1.07l1.26,-1.2c1.37,-1.31 2.27,-1.87 3.38,-2.04c0.71,-0.12 0.71,-0.12 0.51,0.27c-0.12,0.21 -0.5,0.83 -0.85,1.39c-0.36,0.55 -0.84,1.52 -1.04,2.14c-0.2,0.63 -0.41,1.24 -0.46,1.38c-0.07,0.17 0.04,0.15 0.44,-0.05c0.53,-0.27 1.57,-0.37 1.57,-0.15c0,0.05 -0.11,0.23 -0.24,0.37c-0.14,0.15 -0.36,0.56 -0.49,0.9l-0.28,0.63l0.85,-0.32c0.46,-0.19 1.23,-0.5 1.7,-0.68c0.95,-0.39 3.55,-0.67 3.55,-0.39c0,0.2 -0.54,0.68 -1.48,1.3c-0.39,0.28 -1.03,0.92 -1.44,1.45c-0.39,0.52 -0.83,1.1 -0.98,1.27c-0.24,0.31 -0.23,0.32 0.3,0.22c0.29,-0.07 0.75,-0.03 1,0.07l0.45,0.17l-0.79,0.8l-0.79,0.8l1.88,-0.05c1.43,-0.06 2.16,0 2.97,0.22c1.68,0.46 1.65,0.64 -0.18,1.27c-0.56,0.19 -1.7,0.73 -2.55,1.19l-1.53,0.83l0.7,0.1c0.37,0.07 0.86,0.26 1.07,0.41l0.4,0.31l-0.96,0.39c-0.53,0.22 -0.96,0.44 -0.96,0.51c0,0.05 0.51,0.24 1.16,0.41c1.58,0.4 3.14,1.18 3.67,1.81c0.24,0.29 0.44,0.6 0.44,0.7c0,0.1 -0.53,0.12 -1.48,0.05c-1.12,-0.08 -1.87,-0.05 -2.99,0.17l-1.47,0.31l0.59,0.4c0.51,0.34 0.93,0.87 0.93,1.14c0,0.05 -0.47,0.1 -1.05,0.14l-1.05,0.05l1.22,0.9c1.53,1.15 2.55,2.27 2.68,3.04c0.07,0.3 0.09,0.61 0.04,0.64c-0.04,0.04 -0.63,-0.18 -1.33,-0.51c-0.69,-0.32 -1.8,-0.66 -2.46,-0.76c-0.64,-0.08 -1.38,-0.22 -1.61,-0.27l-0.43,-0.1l0.38,0.4c0.37,0.41 0.73,1.18 0.73,1.58c0,0.19 -0.26,0.16 -1.11,-0.18l-1.12,-0.41l0.21,0.37c0.11,0.22 0.5,0.85 0.9,1.41c0.37,0.56 0.81,1.4 0.98,1.87c0.31,0.87 0.41,2.12 0.19,2.12c-0.07,0 -0.55,-0.42 -1.07,-0.93c-1,-0.99 -3.86,-2.68 -3.65,-2.16c0.06,0.16 0.15,0.56 0.2,0.9c0.12,0.77 -0.19,0.99 -0.68,0.53c-0.65,-0.58 -1.32,-0.95 -1.24,-0.7c0.05,0.14 0.24,0.95 0.44,1.82c0.32,1.41 0.34,1.73 0.15,2.94c-0.23,1.61 -0.34,1.6 -1.35,-0.34c-0.38,-0.71 -1.09,-1.73 -1.6,-2.28l-0.93,-0.98l0,0.61c0,0.63 -0.24,1.27 -0.5,1.27c-0.07,0 -0.39,-0.4 -0.71,-0.9l-0.58,-0.88l-0.03,0.59c-0.19,2.5 -0.75,4.39 -1.5,5.1c-0.37,0.34 -0.39,0.36 -0.47,0.05c-0.05,-0.17 -0.14,-0.85 -0.21,-1.49c-0.06,-0.72 -0.3,-1.63 -0.59,-2.3c-0.26,-0.61 -0.51,-1.25 -0.54,-1.44c-0.07,-0.29 -0.12,-0.27 -0.29,0.17c-0.24,0.56 -0.67,1.1 -0.89,1.1c-0.08,0 -0.27,-0.42 -0.42,-0.95c-0.32,-1.1 -0.31,-1.12 -1.24,0.87c-0.48,1 -0.87,1.58 -1.53,2.16c-1.36,1.22 -1.65,1.07 -1.1,-0.63c0.18,-0.56 0.28,-1.51 0.3,-2.75l0.02,-1.92l-0.51,0.59c-0.27,0.32 -0.71,0.63 -0.97,0.7c-0.44,0.1 -0.44,0.08 -0.29,-0.56c0.34,-1.5 0.26,-1.55 -0.95,-0.43c-0.59,0.58 -1.43,1.22 -1.82,1.46c-0.81,0.46 -2.12,0.89 -2.27,0.73c-0.12,-0.12 0.2,-0.74 0.71,-1.34c0.2,-0.25 0.51,-0.83 0.66,-1.27c0.17,-0.44 0.48,-1.26 0.68,-1.8c0.41,-1.04 0.39,-1.09 -0.25,-0.72c-0.48,0.27 -1.36,0.34 -1.36,0.11c0,-0.09 0.2,-0.51 0.44,-0.94c0.26,-0.44 0.43,-0.83 0.39,-0.87c-0.03,-0.01 -0.75,0.26 -1.6,0.65c-1.34,0.61 -1.68,0.7 -2.8,0.7c-1.73,0.01 -1.78,-0.29 -0.25,-1.31c0.61,-0.43 1.36,-1.09 1.65,-1.5c0.28,-0.4 0.71,-0.93 0.93,-1.17l0.39,-0.44l-1.1,0.07c-0.62,0.03 -1.11,0.02 -1.11,-0.07c0,-0.08 0.34,-0.49 0.77,-0.92l0.74,-0.76l-2.15,0c-1.7,0 -2.33,-0.07 -2.98,-0.32c-0.44,-0.17 -0.78,-0.39 -0.74,-0.5c0.01,-0.08 0.76,-0.42 1.63,-0.74c0.86,-0.31 1.9,-0.8 2.31,-1.07c0.4,-0.29 0.91,-0.58 1.1,-0.65c0.31,-0.12 0.19,-0.19 -0.66,-0.42c-0.66,-0.19 -1,-0.36 -0.94,-0.48c0.07,-0.1 0.55,-0.39 1.07,-0.61l0.96,-0.44l-0.68,-0.21c-0.38,-0.12 -1.23,-0.39 -1.89,-0.59c-1.29,-0.39 -2.82,-1.41 -2.92,-1.94c-0.07,-0.3 0.03,-0.32 1.43,-0.22c1.1,0.07 1.92,0.02 3.04,-0.22l1.53,-0.3l-0.62,-0.26c-0.51,-0.22 -1,-0.85 -1,-1.27c0,-0.07 0.34,-0.11 0.75,-0.07c1.46,0.12 1.46,0 0.08,-1.02c-0.69,-0.53 -1.49,-1.21 -1.78,-1.53c-0.53,-0.61 -1.21,-1.95 -1.04,-2.11c0.06,-0.05 0.63,0.14 1.28,0.43c1.14,0.51 1.78,0.68 3.72,1l0.88,0.15l-0.41,-0.49c-0.42,-0.51 -0.71,-1.26 -0.54,-1.43c0.05,-0.06 0.49,0.04 0.97,0.19c0.47,0.15 0.9,0.26 0.93,0.22c0.04,-0.03 -0.3,-0.63 -0.78,-1.32c-0.8,-1.21 -1.19,-2.18 -1.43,-3.62c-0.13,-0.85 0.17,-0.83 1.02,0.07c0.77,0.78 1.57,1.36 3.01,2.15l0.97,0.55l-0.15,-0.44c-0.33,-0.85 -0.14,-2.23 0.23,-1.63c0.04,0.06 0.41,0.37 0.82,0.66l0.75,0.53l-0.39,-1.47c-0.21,-0.81 -0.38,-1.93 -0.38,-2.51c-0.02,-1.15 0.26,-2.16 0.56,-2.05c0.1,0.03 0.49,0.61 0.87,1.27c0.37,0.66 1.1,1.71 1.61,2.34l0.94,1.12l0.12,-0.88c0.15,-1.32 0.35,-1.39 1,-0.36c0.64,1.02 0.73,0.96 0.9,-0.68c0.13,-1.42 0.46,-2.47 1.02,-3.46c0.69,-1.17 0.73,-1.14 1.13,1.34zm-2.82,5.1c-5.87,1.17 -10.25,5.4 -11.39,10.97c-0.34,1.7 -0.26,4.76 0.18,6.37c0.39,1.44 1.65,3.89 2.64,5.13c1.8,2.26 5.02,4.28 7.76,4.87c1.77,0.39 4.76,0.36 6.44,-0.06c3.92,-0.99 7.42,-3.81 9.15,-7.39c0.94,-1.94 1.26,-3.15 1.39,-5.22c0.41,-6.52 -3.9,-12.63 -10.17,-14.4c-1.61,-0.46 -4.4,-0.58 -6,-0.27z" class="shp0" fill-rule="evenodd" id="Layer"></path><path fill="#5f91b8" d="m22.55,12.12c-2.85,0.54 -5.83,2.31 -7.71,4.59c-5.54,6.71 -2.99,16.95 5.03,20.31c1.63,0.7 3.16,0.99 5.14,0.99c2.25,0 3.76,-0.34 5.61,-1.26c3.87,-1.92 6.45,-5.55 7.23,-10.19c0.99,-5.83 -2.88,-11.91 -8.88,-13.95c-1.22,-0.42 -1.7,-0.49 -3.7,-0.52c-1.26,-0.02 -2.48,0 -2.72,0.03z" class="shp0" fill-rule="evenodd" id="Layer"></path></g></svg>