<svg xmlns="http://www.w3.org/2000/svg" xmlns:xlink="http://www.w3.org/1999/xlink" xmlns:svgjs="http://svgjs.com/svgjs" id="SvgjsSvg1031" width="288" height="288"><defs id="SvgjsDefs1032"></defs><g id="SvgjsG1033"><svg xmlns="http://www.w3.org/2000/svg" width="288" height="288" viewBox="0 0 50 50"><g id="Layer" fill="#5f91b8" class="color000 svgShape"><path id="Layer" fill="#5f91b8" fill-rule="evenodd" d="M26.91 3.12C26.83 3.36 26.76 3.71 26.76 3.93C26.76 4.59 26.1 6.83 25.75 7.35C25.58 7.61 25.39 8.06 25.35 8.35C25.29 8.79 25.25 8.85 24.98 8.79C24.63 8.73 24.52 8.89 24.32 9.75C24.17 10.44 24.15 10.44 23.42 10.27C22.95 10.16 22.68 10.45 22.68 11.05C22.68 11.47 22.31 12.85 22.15 13.02C21.99 13.19 21.58 13.02 21.03 12.59C20.76 12.36 20.43 12.19 20.29 12.19C19.9 12.19 19.62 12.78 19.48 13.97C19.37 14.89 19.31 15.09 19.12 15.09C18.73 15.09 18.56 15.44 18.64 16.12C18.66 16.46 18.74 16.84 18.79 16.97C18.87 17.14 18.78 17.23 18.41 17.39C18.15 17.5 17.94 17.68 17.94 17.79C17.94 18.13 18.6 21.29 18.87 22.3C19.32 23.9 18.98 23.94 17.7 22.42C17.2 21.83 16.41 21 15.96 20.57L15.16 19.8L14.86 20.08C14.51 20.41 14.16 20.43 13.76 20.16C13.37 19.88 11.71 19.3 11.31 19.3C11.13 19.3 10.96 19.37 10.93 19.43C10.88 19.59 8.75 19.28 7.81 18.97C7.05 18.71 7.01 18.72 7.01 19.09C7.01 19.59 7.19 19.97 7.89 20.89C8.27 21.4 8.58 21.93 8.61 22.21C8.67 22.46 8.88 22.96 9.1 23.32C9.6 24.09 9.6 24.27 9.18 24.46C9 24.54 8.85 24.67 8.85 24.74C8.85 25.04 10.39 27.6 10.67 27.74C11.08 27.98 11.04 28.06 10.35 28.32C10.02 28.44 9.72 28.62 9.69 28.72C9.59 28.98 11.05 31.31 11.66 31.84C12.33 32.44 12.33 32.43 12.74 32.94C12.92 33.18 13.38 33.48 13.79 33.65C14.59 33.98 14.69 34.14 14.16 34.26C11.88 34.77 11.66 35.09 12.84 36.21C13.22 36.58 13.76 37.17 14.04 37.51C14.32 37.87 14.69 38.22 14.86 38.29C15.03 38.37 15.17 38.54 15.17 38.66C15.17 38.78 15.29 38.99 15.42 39.11C15.8 39.45 17.33 39.98 17.95 39.98C18.48 39.98 18.48 39.98 18.4 40.4C18.2 41.44 18.99 41.66 21.34 41.2C22.85 40.9 23.07 40.82 23.69 40.34C24.52 39.71 25.93 38.24 26.13 37.79C26.38 37.24 26.48 37.45 26.47 38.55C26.46 39.5 26.58 43.82 26.62 44.08C26.62 44.15 26.72 44.19 26.84 44.19C26.97 44.19 26.93 44.28 26.68 44.49C26.31 44.81 26.27 44.94 26.14 46.05C26.09 46.59 26.11 46.68 26.43 46.94C26.85 47.27 27.17 47.28 27.67 47.02C28.08 46.81 28.21 46.59 28.21 46.09C28.21 45.7 27.88 45.02 27.67 44.95C27.56 44.91 27.5 44.45 27.47 43.58C27.46 42.87 27.41 41.31 27.35 40.11L27.26 37.93L28.22 38.95C29.28 40.04 30.25 40.62 31.3 40.74C31.8 40.79 31.92 40.74 32.38 40.33C32.76 39.98 33.19 39.78 34.07 39.53C35.12 39.24 35.32 39.13 35.78 38.62C36.07 38.3 36.57 37.84 36.9 37.59C37.53 37.12 37.94 36.68 37.95 36.5C37.95 36.45 38.19 36.16 38.48 35.88C39.03 35.34 39.1 35.13 38.86 34.68C38.68 34.34 37.74 33.92 37.15 33.92C36.56 33.92 36.25 33.63 36.52 33.29C36.81 32.92 37.22 32.6 37.44 32.6C37.72 32.6 38.05 32.22 38.15 31.77C38.2 31.57 38.45 31.26 38.69 31.06C39.15 30.72 39.86 29.43 40.01 28.72C40.07 28.36 40.03 28.31 39.66 28.16C39.18 27.98 39.2 27.89 40.11 26.83C40.77 26.07 40.82 25.95 40.52 25.83C40.22 25.73 40.28 25.17 40.64 24.83C40.82 24.67 41.01 24.35 41.06 24.12C41.19 23.49 41.61 22.74 42.34 21.82C42.97 21.03 43 20.97 42.76 20.8C42.4 20.54 41.9 20.58 41.02 20.91C40.6 21.07 40.03 21.18 39.77 21.16C39.47 21.15 39.01 21.26 38.57 21.47C37.7 21.88 37.52 21.88 37.36 21.5C37.04 20.8 36.11 21.17 34.6 22.59C33.86 23.29 33.17 23.78 32.96 23.78C32.74 23.78 32.79 23.48 33.15 22.7C33.33 22.32 33.48 21.87 33.48 21.7C33.48 21.38 34.34 18.33 34.54 17.95C34.62 17.8 34.62 17.63 34.53 17.46C34.42 17.26 34.42 16.96 34.53 16.38C34.78 15 34.5 14.63 33.49 15.04C32.69 15.35 32.5 15.23 32.59 14.43C32.63 14.07 32.62 13.74 32.57 13.71C32.5 13.68 32.41 13.18 32.36 12.63C32.3 12.06 32.2 11.52 32.13 11.43C32.05 11.35 31.75 11.27 31.45 11.27C31.01 11.26 30.83 11.18 30.5 10.83C30.28 10.6 30.01 10.18 29.92 9.89C29.71 9.2 29.57 9.03 29.18 9.03C28.93 9.03 28.87 8.97 28.87 8.69C28.87 8.5 28.78 8 28.67 7.6C28.56 7.19 28.46 6.38 28.42 5.8C28.35 4.59 28.06 3.55 27.67 3.05C27.31 2.6 27.08 2.62 26.91 3.12L26.91 3.12Z" class="color333 svgShape"></path></g></svg></g></svg>