<svg xmlns="http://www.w3.org/2000/svg" xmlns:xlink="http://www.w3.org/1999/xlink" xmlns:svgjs="http://svgjs.com/svgjs" width="288" height="288"><rect id="backgroundrect" width="100%" height="100%" x="0" y="0" fill="none" stroke="none"></rect><defs id="SvgjsDefs1002"></defs><g class="currentLayer" style=""><title>Layer 1</title><g id="SvgjsG1008" class=""><svg xmlns="http://www.w3.org/2000/svg" width="288" height="288" viewBox="0 0 50 50" id="svg_2"><g id="Layer" fill="#5f91b8" class="color000 svgShape"><path id="svg_1" fill="#5f91b8" fill-rule="evenodd" d="M25.45 6.14C25.56 6.79 25.86 7.89 26.12 8.59L26.58 9.86L26.78 9.25C27 8.62 27.58 8.04 27.85 8.21C27.92 8.27 27.99 8.47 27.99 8.69C27.99 8.91 28.07 9.34 28.17 9.64L28.38 10.18L28.73 9.35C28.94 8.89 29.29 8.18 29.55 7.76C30.07 6.87 31.59 5.4 31.98 5.4C32.27 5.4 32.25 5.56 31.79 7.16C31.65 7.64 31.55 8.76 31.55 9.71L31.55 11.41L32.03 10.86C32.28 10.58 32.69 10.29 32.95 10.22L33.39 10.12L33.3 11.2L33.2 12.27L34.46 11.07C35.83 9.76 36.73 9.2 37.84 9.03C38.55 8.91 38.55 8.91 38.35 9.3C38.23 9.51 37.85 10.13 37.5 10.69C37.14 11.24 36.66 12.21 36.46 12.83C36.26 13.46 36.05 14.07 36 14.21C35.93 14.38 36.04 14.36 36.44 14.16C36.97 13.89 38.01 13.79 38.01 14.01C38.01 14.06 37.9 14.24 37.77 14.38C37.63 14.53 37.41 14.94 37.28 15.28L37 15.91L37.85 15.59C38.31 15.4 39.08 15.09 39.55 14.91C40.5 14.52 43.1 14.24 43.1 14.52C43.1 14.72 42.56 15.2 41.62 15.82C41.23 16.1 40.59 16.74 40.18 17.27C39.79 17.79 39.35 18.37 39.2 18.54C38.96 18.85 38.97 18.86 39.5 18.76C39.79 18.69 40.25 18.73 40.5 18.83L40.95 19L40.16 19.8L39.37 20.6L41.25 20.55C42.68 20.49 43.41 20.55 44.22 20.77C45.9 21.23 45.87 21.41 44.04 22.04C43.48 22.23 42.34 22.77 41.49 23.23L39.96 24.06L40.66 24.16C41.03 24.23 41.52 24.42 41.73 24.57L42.13 24.88L41.17 25.27C40.64 25.49 40.21 25.71 40.21 25.78C40.21 25.83 40.72 26.02 41.37 26.19C42.95 26.59 44.51 27.37 45.04 28C45.28 28.29 45.48 28.6 45.48 28.7C45.48 28.8 44.95 28.82 44 28.75C42.88 28.67 42.13 28.7 41.01 28.92L39.54 29.23L40.13 29.63C40.64 29.97 41.06 30.5 41.06 30.77C41.06 30.82 40.59 30.87 40.01 30.91L38.96 30.96L40.18 31.86C41.71 33.01 42.73 34.13 42.86 34.9C42.93 35.2 42.95 35.51 42.9 35.54C42.86 35.58 42.27 35.36 41.57 35.03C40.88 34.71 39.77 34.37 39.11 34.27C38.47 34.19 37.73 34.05 37.5 34L37.07 33.9L37.45 34.3C37.82 34.71 38.18 35.48 38.18 35.88C38.18 36.07 37.92 36.04 37.07 35.7L35.95 35.29L36.16 35.66C36.27 35.88 36.66 36.51 37.06 37.07C37.43 37.63 37.87 38.47 38.04 38.94C38.35 39.81 38.45 41.06 38.23 41.06C38.16 41.06 37.68 40.64 37.16 40.13C36.16 39.14 33.3 37.45 33.51 37.97C33.57 38.13 33.66 38.53 33.71 38.87C33.83 39.64 33.52 39.86 33.03 39.4C32.38 38.82 31.71 38.45 31.79 38.7C31.84 38.84 32.03 39.65 32.23 40.52C32.55 41.93 32.57 42.25 32.38 43.46C32.15 45.07 32.04 45.06 31.03 43.12C30.65 42.41 29.94 41.39 29.43 40.84L28.5 39.86L28.5 40.47C28.5 41.1 28.26 41.74 28 41.74C27.93 41.74 27.61 41.34 27.29 40.84L26.71 39.96L26.68 40.55C26.49 43.05 25.93 44.94 25.18 45.65C24.81 45.99 24.79 46.01 24.71 45.7C24.66 45.53 24.57 44.85 24.5 44.21C24.44 43.49 24.2 42.58 23.91 41.91C23.65 41.3 23.4 40.66 23.37 40.47C23.3 40.18 23.25 40.2 23.08 40.64C22.84 41.2 22.41 41.74 22.19 41.74C22.11 41.74 21.92 41.32 21.77 40.79C21.45 39.69 21.46 39.67 20.53 41.66C20.05 42.66 19.66 43.24 19 43.82C17.64 45.04 17.35 44.89 17.9 43.19C18.08 42.63 18.18 41.68 18.2 40.44L18.22 38.52L17.71 39.11C17.44 39.43 17 39.74 16.74 39.81C16.3 39.91 16.3 39.89 16.45 39.25C16.79 37.75 16.71 37.7 15.5 38.82C14.91 39.4 14.07 40.04 13.68 40.28C12.87 40.74 11.56 41.17 11.41 41.01C11.29 40.89 11.61 40.27 12.12 39.67C12.32 39.42 12.63 38.84 12.78 38.4C12.95 37.96 13.26 37.14 13.46 36.6C13.87 35.56 13.85 35.51 13.21 35.88C12.73 36.15 11.85 36.22 11.85 35.99C11.85 35.9 12.05 35.48 12.29 35.05C12.55 34.61 12.72 34.22 12.68 34.18C12.65 34.17 11.93 34.44 11.08 34.83C9.74 35.44 9.4 35.53 8.28 35.53C6.55 35.54 6.5 35.24 8.03 34.22C8.64 33.79 9.39 33.13 9.68 32.72C9.96 32.32 10.39 31.79 10.61 31.55L11 31.11L9.9 31.18C9.28 31.21 8.79 31.2 8.79 31.11C8.79 31.03 9.13 30.62 9.56 30.19L10.3 29.43L8.15 29.43C6.45 29.43 5.82 29.36 5.17 29.11C4.73 28.94 4.39 28.72 4.43 28.61C4.44 28.53 5.19 28.19 6.06 27.87C6.92 27.56 7.96 27.07 8.37 26.8C8.77 26.51 9.28 26.22 9.47 26.15C9.78 26.03 9.66 25.96 8.81 25.73C8.15 25.54 7.81 25.37 7.87 25.25C7.94 25.15 8.42 24.86 8.94 24.64L9.9 24.2L9.22 23.99C8.84 23.87 7.99 23.6 7.33 23.4C6.04 23.01 4.51 21.99 4.41 21.46C4.34 21.16 4.44 21.14 5.84 21.24C6.94 21.31 7.76 21.26 8.88 21.02L10.41 20.72L9.79 20.46C9.28 20.24 8.79 19.61 8.79 19.19C8.79 19.12 9.13 19.08 9.54 19.12C11 19.24 11 19.12 9.62 18.1C8.93 17.57 8.13 16.89 7.84 16.57C7.31 15.96 6.63 14.62 6.8 14.46C6.86 14.41 7.43 14.6 8.08 14.89C9.22 15.4 9.86 15.57 11.8 15.89L12.68 16.04L12.27 15.55C11.85 15.04 11.56 14.29 11.73 14.12C11.78 14.06 12.22 14.16 12.7 14.31C13.17 14.46 13.6 14.57 13.63 14.53C13.67 14.5 13.33 13.9 12.85 13.21C12.05 12 11.66 11.03 11.42 9.59C11.29 8.74 11.59 8.76 12.44 9.66C13.21 10.44 14.01 11.02 15.45 11.81L16.42 12.36L16.27 11.92C15.94 11.07 16.13 9.69 16.5 10.29C16.54 10.35 16.91 10.66 17.32 10.95L18.07 11.48L17.68 10.01C17.47 9.2 17.3 8.08 17.3 7.5C17.28 6.35 17.56 5.34 17.86 5.45C17.96 5.48 18.35 6.06 18.73 6.72C19.1 7.38 19.83 8.43 20.34 9.06L21.28 10.18L21.4 9.3C21.55 7.98 21.75 7.91 22.4 8.94C23.04 9.96 23.13 9.9 23.3 8.26C23.43 6.84 23.76 5.79 24.32 4.8C25.01 3.63 25.05 3.66 25.45 6.14ZM22.63 11.24C16.76 12.41 12.38 16.64 11.24 22.21C10.9 23.91 10.98 26.97 11.42 28.58C11.81 30.02 13.07 32.47 14.06 33.71C15.86 35.97 19.08 37.99 21.82 38.58C23.59 38.97 26.58 38.94 28.26 38.52C32.18 37.53 35.68 34.71 37.41 31.13C38.35 29.19 38.67 27.98 38.8 25.91C39.21 19.39 34.9 13.28 28.63 11.51C27.02 11.05 24.23 10.93 22.63 11.24Z" class="color333 svgShape"></path><path id="Layer" fill="#5f91b8" fill-rule="evenodd" d="M22.55 12.12C19.7 12.66 16.72 14.43 14.84 16.71C9.3 23.42 11.85 33.66 19.87 37.02C21.5 37.72 23.03 38.01 25.01 38.01C27.26 38.01 28.77 37.67 30.62 36.75C34.49 34.83 37.07 31.2 37.85 26.56C38.84 20.73 34.97 14.65 28.97 12.61C27.75 12.19 27.27 12.12 25.27 12.09C24.01 12.07 22.79 12.09 22.55 12.12Z" class="color333 svgShape"></path></g></svg></g></g></svg>