<svg xmlns="http://www.w3.org/2000/svg" xmlns:xlink="http://www.w3.org/1999/xlink" xmlns:svgjs="http://svgjs.com/svgjs" id="SvgjsSvg1001" width="288" height="288"><defs id="SvgjsDefs1002"></defs><g id="SvgjsG1008" transform="matrix(1,0,0,1,0,0)"><svg xmlns="http://www.w3.org/2000/svg" width="288" height="288" viewBox="0 0 50 50"><g id="Layer" fill="#5f91b8" class="color000 svgShape"><path id="Layer" fill="#5f91b8" fill-rule="evenodd" d="M16.46 12.32C16.46 12.55 15.87 13.63 15.56 13.97 15.42 14.12 14.88 14.5 14.36 14.79 13.13 15.5 12.43 16.14 12 16.92 11.68 17.51 11.66 17.64 11.71 18.52 11.76 19.29 11.83 19.57 12.09 19.97 12.71 20.9 14.07 21.4 15.18 21.09 16.81 20.65 17.84 18.96 18.01 16.5 18.12 14.73 17.81 13.49 17.01 12.53 16.66 12.12 16.46 12.04 16.46 12.32zM29.92 16.44C29.58 17.42 29.05 18.01 27.88 18.71 26.18 19.73 25.15 20.97 25.14 22.02 25.13 23.86 26.24 25.04 27.95 25.04 29.7 25.04 30.84 23.9 31.39 21.59 31.61 20.7 31.59 18.8 31.34 18.01 31.13 17.32 30.45 16.19 30.19 16.1 30.12 16.08 30 16.23 29.92 16.44zM8.86 20.8C8.76 20.91 8.08 21.38 7.34 21.87 6.6 22.35 5.85 22.93 5.67 23.13 5.06 23.87 5.09 24.99 5.75 25.6 6.16 25.98 7.28 26.09 7.82 25.8 8.75 25.3 9.46 23.13 9.29 21.35 9.2 20.55 9.13 20.45 8.86 20.8zM20.33 22C19.83 23 19.64 23.19 18.41 23.9 17.35 24.53 16.47 25.36 16.1 26.07 15.53 27.21 15.93 29.03 16.92 29.7 18.29 30.63 20.15 30.28 21.14 28.89 21.8 27.98 22.12 26.9 22.18 25.34 22.25 23.56 21.98 22.55 21.25 21.69L20.77 21.14 20.33 22zM43.02 22.95C42.68 23.89 42.2 24.43 41.15 25.05 39.9 25.79 38.99 26.63 38.61 27.39 38.36 27.88 38.33 28.09 38.37 28.87 38.42 29.62 38.5 29.87 38.79 30.29 39.28 31 40.25 31.48 41.16 31.48 43.43 31.48 44.85 29.15 44.69 25.74 44.63 24.49 44.38 23.73 43.78 22.95 43.39 22.44 43.21 22.44 43.02 22.95zM34.29 24.65C33.89 25.53 33.34 26.13 32.5 26.6 31.38 27.23 30.58 27.87 30.18 28.48 28.88 30.44 29.91 32.8 32.16 33.03 34.53 33.27 36.15 30.93 36 27.43 35.95 26.27 35.9 26.02 35.56 25.34 35.35 24.91 35.05 24.43 34.89 24.27L34.58 24 34.29 24.65zM12.88 28.09C12.42 29.05 12.03 29.45 10.93 30.08 9.78 30.74 8.9 31.59 8.5 32.39 8.11 33.2 8.19 34.29 8.7 35.1 9.57 36.52 11.65 36.81 13.09 35.71 13.59 35.32 14.2 34.17 14.45 33.11 14.73 31.97 14.73 30.13 14.46 29.26 14.28 28.64 13.51 27.44 13.3 27.44 13.25 27.44 13.07 27.73 12.88 28.09zM26.44 29.08C26.06 30.06 25.59 30.56 24.37 31.28 22.17 32.58 21.36 34 21.86 35.68 22.07 36.36 22.97 37.29 23.61 37.46 26.23 38.18 28.09 36.04 28.11 32.27 28.12 30.78 27.89 29.92 27.26 29.13 27 28.81 26.75 28.55 26.72 28.54 26.67 28.54 26.55 28.78 26.44 29.08z" class="color333 svgShape"></path></g></svg></g></svg>